<svg xmlns="http://www.w3.org/2000/svg" version="1.1" xmlns:xlink="http://www.w3.org/1999/xlink" xmlns:svgjs="http://svgjs.dev/svgjs" width="1500" height="1500" viewBox="0 0 1500 1500"><rect width="1500" height="1500" fill="#ffffff"></rect><g transform="matrix(0.6666666666666666,0,0,0.6666666666666666,248.63842662632374,166.12258064516124)"><svg viewBox="0 0 213 248" data-background-color="#fe2205" preserveAspectRatio="xMidYMid meet" height="1746" width="1500" xmlns="http://www.w3.org/2000/svg" xmlns:xlink="http://www.w3.org/1999/xlink"><g id="tight-bounds" transform="matrix(1,0,0,1,0.29001512859304057,0.4000000000000057)"><svg viewBox="0 0 212.4199697428139 247.2" height="247.2" width="212.4199697428139"><g><svg viewBox="0 0 212.4199697428139 247.2" height="247.2" width="212.4199697428139"><g><svg viewBox="0 0 212.4199697428139 247.2" height="247.2" width="212.4199697428139"><g id="textblocktransform"><svg viewBox="0 0 212.4199697428139 247.2" height="247.2" width="212.4199697428139" id="textblock"><g><svg viewBox="0 0 212.4199697428139 247.2" height="247.2" width="212.4199697428139"><g transform="matrix(1,0,0,1,0,0)"><svg width="212.4199697428139" viewBox="0.2 -33.05 28.400000000000002 33.05" height="247.2" data-palette-color="#fff9ef"><path d="M13.75 0L0.2 0 0.4-1.05 1.25-1.4Q3.05-2.1 3.4-4.05L3.4-4.05 6-17.55Q6.55-20.3 7.05-23.23 7.55-26.15 8.05-28.95L8.05-28.95Q8.4-31.05 6.4-31.8L6.4-31.8 5.9-32 6.15-33.05 18.05-33.05Q21.95-33.05 24.25-32 26.55-30.95 27.58-29.28 28.6-27.6 28.6-25.6L28.6-25.6Q28.6-22.75 26.13-20.43 23.65-18.1 18.75-17.5L18.75-17.5Q23.65-16.85 25.88-14.5 28.1-12.15 28.1-9.2L28.1-9.2Q28.1-6.75 26.6-4.65 25.1-2.55 21.95-1.28 18.8 0 13.75 0L13.75 0ZM15.1-31.6L12.55-18.1 14.45-18.1Q18.3-18.1 20.25-20.08 22.2-22.05 22.2-25.6L22.2-25.6Q22.2-28.45 20.83-30.03 19.45-31.6 16.8-31.6L16.8-31.6 15.1-31.6ZM9.6-1.45L9.6-1.45 12.7-1.45Q17.15-1.45 19.33-3.85 21.5-6.25 21.5-10.05L21.5-10.05Q21.5-16.7 14.8-16.7L14.8-16.7 12.3-16.7 12.05-15.5Q11.45-12 10.8-8.5 10.15-5 9.6-1.45Z" opacity="1" transform="matrix(1,0,0,1,0,0)" fill="#000000" class="wordmark-text-0" data-fill-palette-color="primary" id="text-0"></path></svg></g></svg></g></svg></g></svg></g><g></g></svg></g><defs></defs></svg><rect width="212.4199697428139" height="247.2" fill="none" stroke="none" visibility="hidden"></rect></g></svg></g></svg>