<svg xmlns="http://www.w3.org/2000/svg" version="1.1" xmlns:xlink="http://www.w3.org/1999/xlink" xmlns:svgjs="http://svgjs.dev/svgjs" width="2000" height="2000" viewBox="0 0 2000 2000"><g transform="matrix(1,0,0,1,-0.28443113772425477,-0.28443113772459583)"><svg viewBox="0 0 334 334" data-background-color="#ffffff" preserveAspectRatio="xMidYMid meet" height="2000" width="2000" xmlns="http://www.w3.org/2000/svg" xmlns:xlink="http://www.w3.org/1999/xlink"><g id="tight-bounds" transform="matrix(1,0,0,1,0.04749999999998522,0.04750000000001364)"><svg viewBox="0 0 333.90454557049503 333.90454557049503" height="333.90454557049503" width="333.90454557049503"><g><svg></svg></g><g><svg viewBox="0 0 333.90454557049503 333.90454557049503" height="333.90454557049503" width="333.90454557049503"><g><path d="M0 166.952c0-92.205 74.747-166.952 166.952-166.952 92.205 0 166.952 74.747 166.953 166.952 0 92.205-74.747 166.952-166.953 166.953-92.205 0-166.952-74.747-166.952-166.953zM166.952 316.63c82.665 0 149.677-67.013 149.678-149.678 0-82.665-67.013-149.677-149.678-149.677-82.665 0-149.677 67.013-149.677 149.677 0 82.665 67.013 149.677 149.677 149.678z" data-fill-palette-color="tertiary" fill="#ff4136" stroke="transparent"></path><ellipse rx="160.27418187383762" ry="160.27418187383762" cx="166.95227278524752" cy="166.95227278524752" fill="#ff4136" stroke="transparent" stroke-width="0" fill-opacity="1" data-fill-palette-color="tertiary"></ellipse></g><g transform="matrix(1,0,0,1,100.03049310258932,71.17305217166896)"><svg viewBox="0 0 133.8435593653164 191.55844122715712" height="191.55844122715712" width="133.8435593653164"><g><svg viewBox="0 0 133.8435593653164 191.55844122715712" height="191.55844122715712" width="133.8435593653164"><g><svg viewBox="0 0 133.8435593653164 191.55844122715712" height="191.55844122715712" width="133.8435593653164"><g><svg viewBox="0 0 133.8435593653164 191.55844122715712" height="191.55844122715712" width="133.8435593653164"><g id="textblocktransform"><svg viewBox="0 0 133.8435593653164 191.55844122715712" height="191.55844122715712" width="133.8435593653164" id="textblock"><g><svg viewBox="0 0 133.8435593653164 191.55844122715712" height="191.55844122715712" width="133.8435593653164"><g transform="matrix(1,0,0,1,0,0)"><svg width="133.8435593653164" viewBox="3.8499999046325684 -34.849998474121094 24.350000381469727 34.849998474121094" height="191.55844122715712" data-palette-color="#ffffff"><path d="M21.3-17.95Q23.2-17.65 24.78-16.4 26.35-15.15 27.28-13.3 28.2-11.45 28.2-9.35L28.2-9.35Q28.2-6.7 26.85-4.58 25.5-2.45 22.93-1.23 20.35 0 16.85 0L16.85 0 3.85 0 3.85-34.85 16.35-34.85Q19.9-34.85 22.4-33.68 24.9-32.5 26.15-30.5 27.4-28.5 27.4-26L27.4-26Q27.4-22.9 25.73-20.88 24.05-18.85 21.3-17.95L21.3-17.95ZM8.4-31.1L8.4-19.8 16.05-19.8Q19.25-19.8 21-21.3 22.75-22.8 22.75-25.45L22.75-25.45Q22.75-28.1 21-29.6 19.25-31.1 15.95-31.1L15.95-31.1 8.4-31.1ZM16.45-3.75Q19.85-3.75 21.75-5.35 23.65-6.95 23.65-9.8L23.65-9.8Q23.65-12.7 21.65-14.38 19.65-16.05 16.3-16.05L16.3-16.05 8.4-16.05 8.4-3.75 16.45-3.75Z" opacity="1" transform="matrix(1,0,0,1,0,0)" fill="#ffffff" class="wordmark-text-0" data-fill-palette-color="quaternary" id="text-0"></path></svg></g></svg></g></svg></g></svg></g><g></g></svg></g></svg></g></svg></g></svg></g><defs></defs></svg><rect width="333.90454557049503" height="333.90454557049503" fill="none" stroke="none" visibility="hidden"></rect></g></svg></g></svg>