<svg xmlns="http://www.w3.org/2000/svg" version="1.1" xmlns:xlink="http://www.w3.org/1999/xlink" xmlns:svgjs="http://svgjs.dev/svgjs" width="1500" height="1500" viewBox="0 0 1500 1500"><g transform="matrix(1,0,0,1,-0.21332335329316265,-0.21332335329350371)"><svg viewBox="0 0 334 334" data-background-color="#ffffff" preserveAspectRatio="xMidYMid meet" height="1500" width="1500" xmlns="http://www.w3.org/2000/svg" xmlns:xlink="http://www.w3.org/1999/xlink"><g id="tight-bounds" transform="matrix(1,0,0,1,0.04749999999998522,0.04750000000001364)"><svg viewBox="0 0 333.90454557049503 333.90454557049503" height="333.90454557049503" width="333.90454557049503"><g><svg></svg></g><g><svg viewBox="0 0 333.90454557049503 333.90454557049503" height="333.90454557049503" width="333.90454557049503"><g><path d="M0 166.952c0-92.205 74.747-166.952 166.952-166.952 92.205 0 166.952 74.747 166.953 166.952 0 92.205-74.747 166.952-166.953 166.953-92.205 0-166.952-74.747-166.952-166.953zM166.952 316.63c82.665 0 149.677-67.013 149.678-149.678 0-82.665-67.013-149.677-149.678-149.677-82.665 0-149.677 67.013-149.677 149.677 0 82.665 67.013 149.677 149.677 149.678z" data-fill-palette-color="tertiary" fill="#252422" stroke="transparent"></path><ellipse rx="160.27418187383762" ry="160.27418187383762" cx="166.95227278524752" cy="166.95227278524752" fill="#252422" stroke="transparent" stroke-width="0" fill-opacity="1" data-fill-palette-color="tertiary"></ellipse></g><g transform="matrix(1,0,0,1,74.5141877744682,71.17305217166896)"><svg viewBox="0 0 184.87617002155864 191.55844122715712" height="191.55844122715712" width="184.87617002155864"><g><svg viewBox="0 0 184.87617002155864 191.55844122715712" height="191.55844122715712" width="184.87617002155864"><g><svg viewBox="0 0 184.87617002155864 191.55844122715712" height="191.55844122715712" width="184.87617002155864"><g id="textblocktransform"><svg viewBox="0 0 184.87617002155864 191.55844122715712" height="191.55844122715712" width="184.87617002155864" id="textblock"><g><svg viewBox="0 0 184.87617002155864 191.55844122715712" height="191.55844122715712" width="184.87617002155864"><g transform="matrix(1,0,0,1,0,0)"><svg width="184.87617002155864" viewBox="3.7 -34.4 33.199999999999996 34.4" height="191.55844122715712" data-palette-color="#ffffff"><path d="M26.6-34.4Q29.2-34.4 31.38-33.33 33.55-32.25 34.83-30.3 36.1-28.35 36.1-25.95L36.1-25.95Q36.1-19.6 30.35-17.95L30.35-17.95 30.35-17.75Q36.9-16.25 36.9-9.15L36.9-9.15Q36.9-6.45 35.58-4.38 34.25-2.3 31.95-1.15 29.65 0 26.9 0L26.9 0 3.7 0 3.7-34.4 26.6-34.4ZM14.75-26.85L14.75-21 22.35-21Q23.45-21 24.18-21.78 24.9-22.55 24.9-23.7L24.9-23.7 24.9-24.2Q24.9-25.3 24.15-26.08 23.4-26.85 22.35-26.85L22.35-26.85 14.75-26.85ZM14.75-13.9L14.75-8 23.15-8Q24.25-8 24.98-8.78 25.7-9.55 25.7-10.7L25.7-10.7 25.7-11.2Q25.7-12.35 24.98-13.13 24.25-13.9 23.15-13.9L23.15-13.9 14.75-13.9Z" opacity="1" transform="matrix(1,0,0,1,0,0)" fill="#ffffff" class="wordmark-text-0" data-fill-palette-color="quaternary" id="text-0"></path></svg></g></svg></g></svg></g></svg></g><g></g></svg></g></svg></g></svg></g><defs></defs></svg><rect width="333.90454557049503" height="333.90454557049503" fill="none" stroke="none" visibility="hidden"></rect></g></svg></g></svg>